<svg xmlns="http://www.w3.org/2000/svg" width="1200" height="750" viewBox="0 0 1200 750">
  <defs><linearGradient id="bg" x2="1" y2="1"><stop stop-color="#0c1737"/><stop offset=".55" stop-color="#11132f"/><stop offset="1" stop-color="#242058"/></linearGradient>
  <radialGradient id="glow"><stop stop-color="#aa94ff" stop-opacity=".23"/><stop offset="1" stop-color="#aa94ff" stop-opacity="0"/></radialGradient>
  <linearGradient id="tile" x2="1" y2="1"><stop stop-color="#27365d"/><stop offset="1" stop-color="#101a39"/></linearGradient></defs>
  <rect width="1200" height="750" fill="url(#bg)"/><ellipse cx="855" cy="276" rx="450" ry="390" fill="url(#glow)"/>
  <g fill="none" stroke="#aeb8ff" stroke-opacity=".08"><path d="M-50 610Q520 240 1260 390"/><path d="M-30 643Q520 270 1260 423"/><path d="M-10 676Q520 300 1260 456"/><circle cx="1020" cy="96" r="240"/><circle cx="1020" cy="96" r="290"/></g>
  <rect x="42" y="42" width="1116" height="666" rx="38" fill="none" stroke="#c1cbff" stroke-opacity=".12"/>
  <g font-family="Arial,sans-serif"><rect x="78" y="76" width="44" height="44" rx="12" fill="#8172f3"/><text x="100" y="105" text-anchor="middle" font-size="20" font-weight="700" fill="white">TZ</text>
  <text x="139" y="106" font-size="22" font-weight="700" letter-spacing="3" fill="#cad4ef">TERANGAZONE</text>
  <g transform="translate(914 300) rotate(-7)"><rect x="-160" y="-160" width="320" height="320" rx="68" fill="#060d20" opacity=".25" transform="translate(0 20)"/><rect x="-160" y="-160" width="320" height="320" rx="68" fill="url(#tile)" stroke="#aa94ff" stroke-opacity=".35" stroke-width="2"/>
  <g color="#aa94ff" fill="none" stroke="currentColor" stroke-width="8" stroke-linecap="round" stroke-linejoin="round"><rect x="-92" y="-82" width="128" height="150" rx="20" transform="rotate(-12)"/><rect x="-25" y="-52" width="130" height="150" rx="20" fill="#152347"/><path d="M1 55L66-29L91-10L27 74L-2 86Z" fill="currentColor" stroke="none"/></g></g>
  <rect x="80" y="270" width="58" height="5" rx="2.5" fill="#aa94ff"/>
  <text x="80" y="332" font-size="20" font-weight="700" letter-spacing="2" fill="#aa94ff">DONNEZ VIE À VOS IDÉES</text>
  <text x="80" y="426" font-size="68" font-weight="700" letter-spacing="-2" fill="#f3f6ff">Canva Pro</text>
  <text x="80" y="481" font-size="25" fill="#a9b6d6">Services numériques, simplement.</text>
  <path d="M80 605H1120" stroke="#aeb8ff" stroke-opacity=".13"/>
  <circle cx="90" cy="650" r="5" fill="#aa94ff"/><text x="109" y="657" font-size="19" letter-spacing="2" fill="#899abf">SÉLECTION TERANGAZONE</text><text x="1118" y="657" text-anchor="end" font-size="24" fill="#aa94ff">↗</text>
  </g></svg>